<?xml version="1.0" standalone="no"?><!DOCTYPE svg PUBLIC "-//W3C//DTD SVG 1.1//EN" "http://www.w3.org/Graphics/SVG/1.1/DTD/svg11.dtd"><svg t="1527326537997" class="icon" style="" viewBox="0 0 1024 1024" version="1.1" xmlns="http://www.w3.org/2000/svg" p-id="10738" xmlns:xlink="http://www.w3.org/1999/xlink" width="200" height="200"><defs><style type="text/css"></style></defs><path d="M1024 512c0 96-211.2 307.2-512 307.2-294.4 0-512-204.8-512-307.2s217.6-307.2 512-307.2c300.8 0 512 204.8 512 307.2l0 0zM512 262.4c-134.4 0-243.2 108.8-243.2 249.6s108.8 249.6 249.6 249.6c134.4 0 249.6-115.2 249.6-249.6-6.4-140.8-121.6-249.6-256-249.6l0 0zM512 352c-89.6 0-160 70.4-160 160s70.4 160 160 160c89.6 0 160-70.4 160-160s-70.4-160-160-160l0 0z" p-id="10739" fill="#e56845"></path></svg>