<?xml version="1.0" standalone="no"?><!DOCTYPE svg PUBLIC "-//W3C//DTD SVG 1.1//EN" "http://www.w3.org/Graphics/SVG/1.1/DTD/svg11.dtd"><svg t="1527325960578" class="icon" style="" viewBox="0 0 1024 1024" version="1.1" xmlns="http://www.w3.org/2000/svg" p-id="3953" xmlns:xlink="http://www.w3.org/1999/xlink" width="200" height="200"><defs><style type="text/css"></style></defs><path d="M512 85.333333a384 384 0 0 0-384 384v469.333334l128-128 128 128 128-128 128 128 128-128 128 128V469.333333a384 384 0 0 0-384-384M384 341.333333a85.333333 85.333333 0 0 1 85.333333 85.333334 85.333333 85.333333 0 0 1-85.333333 85.333333 85.333333 85.333333 0 0 1-85.333333-85.333333 85.333333 85.333333 0 0 1 85.333333-85.333334m256 0a85.333333 85.333333 0 0 1 85.333333 85.333334 85.333333 85.333333 0 0 1-85.333333 85.333333 85.333333 85.333333 0 0 1-85.333333-85.333333 85.333333 85.333333 0 0 1 85.333333-85.333334z" fill="#e56845" p-id="3954"></path></svg>