<?xml version="1.0" standalone="no"?>
<!DOCTYPE svg PUBLIC "-//W3C//DTD SVG 1.1//EN" "http://www.w3.org/Graphics/SVG/1.1/DTD/svg11.dtd">
<svg class="icon" width="40px" height="40.00px" viewBox="0 0 1024 1024" version="1.1" xmlns="http://www.w3.org/2000/svg">
<path d="M512.016536 461.74411m-255.356038 0a255.356039 255.356039 0 1 0 510.712077 0 255.356039 255.356039 0 1 0-510.712077 0Z" fill="#2D3740" />
<path d="M914.807303 817.611929a18.351368 18.351368 0 0 1-17.221226-12.015719l-101.710417-276.474055-132.043257 95.768605a18.341584 18.341584 0 0 1-25.623912-4.080257 18.346476 18.346476 0 0 1 4.080256-25.623911l151.664203-110.000578a18.346476 18.346476 0 0 1 27.989383 8.515211l110.078857 299.22124a18.351368 18.351368 0 0 1-17.213887 24.689464z" fill="#2D3740" />
<path d="M946.783988 734.338497a18.351368 18.351368 0 0 1-17.221226-12.015718l-101.710417-276.474056-132.043258 95.768605a18.346476 18.346476 0 0 1-25.623911-4.080256 18.346476 18.346476 0 0 1 4.080256-25.623912l151.664202-110.000578a18.346476 18.346476 0 0 1 27.989384 8.515211l110.078856 299.22124a18.351368 18.351368 0 0 1-17.213886 24.689464z" fill="#2D3740" />
<path d="M978.763118 651.065065a18.351368 18.351368 0 0 1-17.221225-12.015718l-101.712863-276.474056-132.043258 95.768605a18.346476 18.346476 0 0 1-21.543655-29.704168l151.664202-110.000578a18.346476 18.346476 0 0 1 27.989384 8.515211l110.078856 299.22124a18.351368 18.351368 0 0 1-17.211441 24.689464z" fill="#2D3740" />
<path d="M1005.671283 565.53624a18.351368 18.351368 0 0 1-17.221225-12.015718L886.739641 277.04402l-153.748362 111.018196a18.346476 18.346476 0 0 1-25.623912-4.080257 18.346476 18.346476 0 0 1 4.080257-25.623911l173.369306-125.247723a18.346476 18.346476 0 0 1 27.989384 8.515211l110.078856 299.22124a18.351368 18.351368 0 0 1-17.213887 24.689464z" fill="#2D3740" />
<path d="M109.230662 817.611929a18.351368 18.351368 0 0 0 17.221226-12.015719l101.710417-276.474055 132.043257 95.768605a18.341584 18.341584 0 0 0 25.623912-4.080257 18.346476 18.346476 0 0 0-4.080256-25.623911l-151.664203-110.000578a18.346476 18.346476 0 0 0-27.989383 8.515211l-110.078857 299.22124a18.351368 18.351368 0 0 0 17.213887 24.689464z" fill="#2D3740" />
<path d="M77.251531 734.338497a18.351368 18.351368 0 0 0 17.221226-12.015718l101.710417-276.474056 132.043257 95.768605a18.346476 18.346476 0 0 0 25.623912-4.080256 18.346476 18.346476 0 0 0-4.080256-25.623912l-151.664202-110.000578a18.346476 18.346476 0 0 0-27.989384 8.515211l-110.078857 299.22124a18.351368 18.351368 0 0 0 17.213887 24.689464z" fill="#2D3740" />
<path d="M45.274847 651.065065a18.351368 18.351368 0 0 0 17.221225-12.015718L164.206489 362.575291l132.043258 95.768605a18.34403 18.34403 0 0 0 25.623911-4.080256 18.346476 18.346476 0 0 0-4.080256-25.623912l-151.664202-110.000578a18.346476 18.346476 0 0 0-27.989384 8.515211l-110.078856 299.22124a18.351368 18.351368 0 0 0 17.213887 24.689464z" fill="#2D3740" />
<path d="M18.366682 565.53624a18.351368 18.351368 0 0 0 17.221225-12.015718L137.298324 277.04402l153.748362 111.018196a18.346476 18.346476 0 0 0 25.623912-4.080257 18.346476 18.346476 0 0 0-4.080257-25.623911L139.218589 233.110325a18.346476 18.346476 0 0 0-27.989384 8.515211l-110.078856 299.22124a18.351368 18.351368 0 0 0 17.216333 24.689464z" fill="#2D3740" />
<path d="M512.016536 206.388071c-32.593126 0-63.750335 6.115492-92.40753 17.248134 8.10425 43.681736 46.379891 76.771441 92.40753 76.77144 46.030085 0 84.308173-33.087258 92.409977-76.77144-28.657196-11.132642-59.814404-17.248134-92.409977-17.248134z" fill="#E94F3D" /><path d="M512.016536 610.039899m-173.021946 0a173.021946 173.021946 0 1 0 346.043893 0 173.021946 173.021946 0 1 0-346.043893 0Z" fill="#333E48" />
<path d="M430.634015 570.775994m-21.964401 0a21.964401 21.964401 0 1 0 43.928802 0 21.964401 21.964401 0 1 0-43.928802 0Z" fill="#7D868C" /><path d="M476.913612 588.077944m-17.30195 0a17.30195 17.30195 0 1 0 34.6039 0 17.30195 17.30195 0 1 0-34.6039 0Z" fill="#7D868C" /><path d="M593.401504 570.775994m-21.964401 0a21.964401 21.964401 0 1 0 43.928802 0 21.964401 21.964401 0 1 0-43.928802 0Z" fill="#7D868C" />
<path d="M547.124353 588.077944m-17.30195 0a17.30195 17.30195 0 1 0 34.6039 0 17.30195 17.30195 0 1 0-34.6039 0Z" fill="#7D868C" /><path d="M493.958711 620.737117a18.057825 18.057825 0 0 0-18.055378 18.060271v22.135635a18.060271 18.060271 0 0 0 36.115649 0v-22.135635a18.062717 18.062717 0 0 0-18.060271-18.060271z" fill="#5C6670" />
<path d="M530.076807 620.737117a18.060271 18.060271 0 0 0-18.057825 18.060271v22.135635a18.057825 18.057825 0 1 0 36.11565 0v-22.135635a18.062717 18.062717 0 0 0-18.057825-18.060271z" fill="#5C6670" />
</svg>